<svg xmlns="http://www.w3.org/2000/svg" viewBox="0 0 1316 1200" width="100%" height="100%">
  <!-- Text "ODIN" rendered using Starlight Rune Font -->
  <g fill="currentColor" transform="scale(1, -1) translate(0, -900)">
    <path d="M0 350Q0 445 27.5 525.5Q55 606 101.5 653.0Q148 700 203 700Q259 700 305.5 653.0Q352 606 379.5 525.5Q407 445 407 350Q407 255 379.5 174.5Q352 94 305.5 47.0Q259 0 203 0Q148 0 101.5 47.0Q55 94 27.5 174.5Q0 255 0 350ZM242 19Q289 19 317.0 85.5Q345 152 345 257Q345 306 337 368Q325 455 297.5 526.5Q270 598 235.0 639.0Q200 680 164 680Q118 680 90.0 613.5Q62 547 62 443Q62 393 70 331Q82 243 109.5 171.5Q137 100 172.0 59.5Q207 19 242 19ZM176 376Q186 385 194.5 422.0Q203 459 203 480Q203 459 211.5 422.0Q220 385 230 376Q238 366 275.5 356.5Q313 347 331 347Q311 347 274.5 340.0Q238 333 230 324Q220 315 211.5 277.5Q203 240 203 220Q203 240 194.5 277.5Q186 315 176 324Q168 333 132.5 340.0Q97 347 75 347Q95 347 131.5 356.5Q168 366 176 376Z" transform="translate(0, 0)" />
    <path d="M30 18V677Q30 680 28 681Q26 683 24 683H0V700H93Q97 700 99.5 697.5Q102 695 102 691V654Q148 700 203 700Q259 700 305.5 653.0Q352 606 379.5 525.5Q407 445 407 350Q407 255 379.5 174.5Q352 94 305.5 47.0Q259 0 203 0Q149 0 102 47V0H0V18ZM102 58Q126 19 166 19Q202 19 238.0 59.5Q274 100 302.5 171.5Q331 243 343 330Q350 379 350 431Q350 502 336.0 558.5Q322 615 297.0 647.0Q272 679 240 679Q202 679 165.0 633.5Q128 588 102 508Z" transform="translate(427, 0)" />
    <path d="M0 0H102V700H0V683H30V18H0Z" transform="translate(854, 0)" />
    <path d="M17 18V691Q17 695 19.5 697.5Q22 700 26 700H119V682H89Q86 682 84.5 679.5Q83 677 84 673L286 117V682H269V700H320V682H304V9Q304 6 301.0 3.0Q298 0 295 0H202V18H237Q241 18 243.0 20.5Q245 23 243 26L35 596V18H51V0H0V18Z" transform="translate(976, 0)" />
  </g>
</svg>
